<svg xmlns="http://www.w3.org/2000/svg" width="567.134" height="405" xmlns:v="https://vecta.io/nano"><path fill="#fff" stroke="#fff" d="M545.222 70.583c-6.281-23.65-24.787-42.276-48.284-48.597C454.348 10.5 283.567 10.5 283.567 10.5s-170.78 0-213.371 11.486c-23.497 6.322-42.003 24.947-48.284 48.597C10.5 113.45 10.5 202.888 10.5 202.888s0 89.438 11.412 132.305c6.281 23.65 24.787 41.5 48.284 47.821C112.787 394.5 283.567 394.5 283.567 394.5s170.78 0 213.371-11.486c23.497-6.321 42.003-24.171 48.284-47.821 11.412-42.867 11.412-132.305 11.412-132.305s0-89.438-11.412-132.305zm-317.51 213.508V121.685l142.739 81.205z"/></svg>