<svg version="1.2" xmlns="http://www.w3.org/2000/svg" viewBox="0 0 568 405" width="45" height="32"><style>.a{fill:#fff;stroke:#fff}</style><path class="a" d="m545.2 70.6c-6.3-23.7-24.8-42.3-48.3-48.6-42.6-11.5-213.3-11.5-213.3-11.5 0 0-170.8 0-213.4 11.5-23.5 6.3-42 24.9-48.3 48.6-11.4 42.9-11.4 132.3-11.4 132.3 0 0 0 89.4 11.4 132.3 6.3 23.6 24.8 41.5 48.3 47.8 42.6 11.5 213.4 11.5 213.4 11.5 0 0 170.7 0 213.3-11.5 23.5-6.3 42-24.2 48.3-47.8 11.4-42.9 11.4-132.3 11.4-132.3 0 0 0-89.5-11.4-132.3zm-317.5 213.5v-162.4l142.8 81.2z"/></svg>